<svg id="Layer_1" data-name="Layer 1" xmlns="http://www.w3.org/2000/svg" viewBox="0 0 1300.43 1300.35"><defs><style>.cls-1{fill:#fff;}</style></defs><title>instagramwhite</title><path class="cls-1" d="M1141,911c0,92.67,1.14,185.35-.3,278-1.7,108.86-44.16,200.36-124.12,274.1-45.5,42-98.77,70.27-158.67,85.94a353.51,353.51,0,0,1-89.4,11.9c-184.83.12-369.67.58-554.5-.17-86.56-.35-164.13-28.75-231.46-83.14-75.86-61.27-121.68-140.57-137-236.94a374.18,374.18,0,0,1-4.29-58.23q-.47-271.5-.17-543c.06-151,88.33-286.17,226.56-347C116.27,271.05,167.33,261,220.51,261c183.33.1,366.67-.57,550,.35,83.44.42,158.56,27.82,224.3,79.25,73.24,57.32,119.49,131.88,138.7,223A368,368,0,0,1,1141,640q-.06,135.51,0,271ZM491.08,361v0q-134.49,0-269-.05c-30.88,0-61.09,4-90.46,13.67C18.18,411.89-58.68,516.77-58.9,636q-.52,275.47,0,551a264.6,264.6,0,0,0,12.59,80.12c36.7,116,142.79,193.83,264.51,193.88q269.24.12,538.45,0c9.33,0,18.67-.23,28-.88,47.47-3.33,91.58-17.51,130.92-44.22,82.54-56,124.9-134.53,125.3-234.19.72-180.48.19-361,.23-541.45a293.93,293.93,0,0,0-8.14-69.29C1003.58,449.46,892,361.25,767.05,361.06Q629.06,360.85,491.08,361Z" transform="translate(159.04 -260.83)"/><path class="cls-1" d="M141,910.59C141.14,717.22,300.41,558,496.62,561,686.18,564,841.12,719.59,841,911.36c-.14,193.15-158,350-351.61,349.64C297.74,1260.6,140.77,1102.71,141,910.59ZM490.77,1161A249.5,249.5,0,0,0,741,911.71c.32-137.88-110.81-250-247.28-250.84C353.86,660,241.06,771.58,241,910.76A249.46,249.46,0,0,0,490.77,1161Z" transform="translate(159.04 -260.83)"/><path class="cls-1" d="M941,510.93A50,50,0,1,1,891.06,461,50.18,50.18,0,0,1,941,510.93Z" transform="translate(159.04 -260.83)"/></svg>