<?xml version="1.0" encoding="utf-8"?>
<!-- Generator: Adobe Illustrator 22.1.0, SVG Export Plug-In . SVG Version: 6.00 Build 0)  -->
<svg version="1.1" id="Layer_1" xmlns="http://www.w3.org/2000/svg" xmlns:xlink="http://www.w3.org/1999/xlink" x="0px" y="0px"
	 viewBox="0 0 69.3 79.7" style="enable-background:new 0 0 69.3 79.7;" xml:space="preserve">
<path fill="#e6b980" d="M33.8,28.2v1.2c-2.8,0.5-4.9,2.9-4.9,5.8s2.1,5.3,4.9,5.8v7.6c-1.5-0.5-2.7-2-2.7-3.7c0-0.6-0.4-1-1-1s-1,0.4-1,1
	c0,2.8,2,5.2,4.7,5.8v1.2c0,0.6,0.4,1,1,1s1-0.4,1-1v-1.2c2.9-0.4,5.1-2.8,5.1-5.8s-2.2-5.4-5.1-5.8v-7.7c1.7,0.4,2.9,1.9,2.9,3.7
	c0,0.6,0.4,1,1,1s1-0.4,1-1c0-2.9-2.1-5.3-4.9-5.8v-1.2c0-0.6-0.4-1-1-1S33.8,27.7,33.8,28.2z M31,35.2c0-1.8,1.2-3.3,2.9-3.7V39
	C32.2,38.5,31,37,31,35.2z M38.9,45c0,1.9-1.3,3.4-3.1,3.8v-7.6C37.6,41.6,38.9,43.1,38.9,45z"/>
<path fill="#e6b980" d="M34.5,18.3L14.2,32.2c-0.5,0.3-0.6,0.9-0.2,1.4c0.2,0.3,0.5,0.4,0.8,0.4c0.2,0,0.4-0.1,0.6-0.2l3.3-2.3v27c0,0.6,0.4,1,1,1
	h30.8c0.6,0,1-0.4,1-1v-27l3.1,2.3c0.2,0.1,0.4,0.2,0.6,0.2c0.3,0,0.6-0.1,0.8-0.4c0.3-0.4,0.2-1.1-0.2-1.4L35.6,18.3
	C35.2,18.1,34.8,18.1,34.5,18.3z M49.4,57.5H20.6V30.1L35,20.3l14.4,9.8V57.5z"/>
<path fill="#e6b980" d="M0,39.9c0,17.9,13.4,32.7,31.1,34.5h0.1c0.5,0,0.9-0.4,1-0.9s-0.3-1-0.9-1.1C14.6,70.7,2,56.8,2,39.9
	C2,23.1,14.9,9,31.5,7.4L28,10.9c-0.4,0.4-0.4,1,0,1.4c0.2,0.2,0.5,0.3,0.7,0.3s0.5-0.1,0.7-0.3L34.7,7c0.4-0.4,0.4-1,0-1.4
	l-5.3-5.3c-0.4-0.4-1-0.4-1.4,0s-0.4,1,0,1.4l3.6,3.6C13.8,6.9,0,22,0,39.9z"/>
<path fill="#e6b980" d="M69.3,39.8c0-17.9-13.4-32.7-31.1-34.5c-0.5,0-1,0.3-1.1,0.9c-0.1,0.5,0.3,1,0.9,1.1C54.7,9,67.3,23,67.3,39.8
	S54.4,70.7,37.8,72.3l3.5-3.5c0.4-0.4,0.4-1,0-1.4s-1-0.4-1.4,0l-5.3,5.3c-0.4,0.4-0.4,1,0,1.4l5.3,5.3c0.2,0.2,0.5,0.3,0.7,0.3
	c0.2,0,0.5-0.1,0.7-0.3c0.4-0.4,0.4-1,0-1.4l-3.6-3.6C55.5,72.8,69.3,57.8,69.3,39.8z"/>
</svg>
