<?xml version="1.0" encoding="utf-8"?>
<!-- Generator: Adobe Illustrator 22.1.0, SVG Export Plug-In . SVG Version: 6.00 Build 0)  -->
<svg version="1.1" id="Layer_1" xmlns="http://www.w3.org/2000/svg" xmlns:xlink="http://www.w3.org/1999/xlink" x="0px" y="0px"
	 viewBox="0 0 79.9 80" style="enable-background:new 0 0 79.9 80;" xml:space="preserve">
<path fill="#e6b980" d="M20.3,21.6l4.2,3v6.7c0,0.3,0.1,0.6,0.4,0.8l14.5,10.8c0.2,0.1,0.4,0.2,0.6,0.2s0.4-0.1,0.6-0.2l8.5-6.3v2.1
	c-1.1,0.4-1.9,1.4-1.9,2.7v3.9c0,0.6,0.4,1,1,1h3.7c0.6,0,1-0.4,1-1v-3.9c0-1.2-0.8-2.3-1.9-2.7v-3.6l4-3c0.3-0.2,0.4-0.5,0.4-0.8
	v-6.7l4.2-3c0.3-0.2,0.4-0.5,0.4-0.8S60,20.2,59.7,20L40.6,6.2c-0.3-0.3-0.8-0.3-1.2,0L20.3,20c-0.3,0.2-0.4,0.5-0.4,0.8
	S20.1,21.4,20.3,21.6z M50.9,44.3h-1.7v-2.9c0-0.5,0.4-0.9,0.9-0.9c0.5,0,0.9,0.4,0.9,0.9L50.9,44.3L50.9,44.3z M40,40.9L26.5,30.8
	v-4.7l12.9,9.3c0.2,0.1,0.4,0.2,0.6,0.2c0.2,0,0.4-0.1,0.6-0.2l8.5-6.1v4.9L40,40.9z M53.5,30.8l-2.4,1.8v-4.8l2.4-1.8V30.8z
	 M40,8.2l17.4,12.6l-6.9,5l-10-6.5c-0.5-0.3-1.1-0.2-1.4,0.3c-0.3,0.5-0.2,1.1,0.3,1.4l9.3,6.1L40,33.3L22.6,20.8L40,8.2z"/>
<path fill="#e6b980" d="M79.9,57.6V5.9C79.9,2.7,77.3,0,74,0H5.9C2.7,0,0,2.7,0,5.9v51.7c0,2.8,2.2,5,5,5h24.4c-0.3,5.2-4.1,8.2-4.9,8.7h-8.2
	c-3.2,0-5.7,2.6-5.7,5.7V79c0,0.6,0.4,1,1,1h56.6c0.6,0,1-0.4,1-1v-1.9c0-3.2-2.6-5.7-5.7-5.7h-8.2c-0.8-0.6-4.5-3.5-4.9-8.7h24.4
	C77.7,62.6,79.9,60.3,79.9,57.6z M5.9,2H74c2.2,0,3.9,1.8,3.9,3.9v43.5H2V5.9C2,3.8,3.8,2,5.9,2z M2,57.6v-6.2h75.9v6.2
	c0,1.6-1.3,3-3,3H5C3.3,60.6,2,59.2,2,57.6z M67.3,77.1V78H12.7v-0.9c0-2.1,1.7-3.7,3.7-3.7h47.2C65.6,73.3,67.3,75,67.3,77.1z
	 M52.4,71.3H27.6c1.6-1.7,3.6-4.6,3.9-8.7h17.1C48.7,66.7,50.7,69.6,52.4,71.3z"/>
</svg>
