<svg id="Layer_1" data-name="Layer 1" xmlns="http://www.w3.org/2000/svg" viewBox="0 0 80 80.07"><defs><style>.cls-1{fill:#e6b980;}</style></defs><title>contract-house-sign-icon</title><path class="cls-1" d="M49.37,47.89a1,1,0,0,0-1.31,0l-10.77,9.3a1,1,0,0,0-.1,1.41,1,1,0,0,0,.75.35,1,1,0,0,0,.66-.25l.72-.62V68.16a1,1,0,0,0,1,1H57.1a1,1,0,0,0,1-1V58.08l.73.62a1,1,0,1,0,1.3-1.51ZM56.1,67.16H41.32V56.35L48.71,50l7.4,6.38V67.16Z"/><path class="cls-1" d="M.88,71.22l16.55,2v5.8a1,1,0,0,0,1,1H79a1,1,0,0,0,1-1V6a1,1,0,0,0-1-1H48.06l-.13,0L9.71,0A1,1,0,0,0,9,.21a1,1,0,0,0-.38.67L0,70.1a1,1,0,0,0,.2.74A1,1,0,0,0,.88,71.22ZM78,78.07H19.43V7H78ZM10.45,2.12,32.77,5H18.43a1,1,0,0,0-1,1V71.25L2.11,69.36Z"/><path class="cls-1" d="M30.68,21.73H66.75a1,1,0,0,0,0-2H30.68a1,1,0,0,0,0,2Z"/><path class="cls-1" d="M30.68,31.38H66.75a1,1,0,0,0,0-2H30.68a1,1,0,0,0,0,2Z"/><path class="cls-1" d="M30.68,41H66.75a1,1,0,0,0,0-2H30.68a1,1,0,0,0,0,2Z"/></svg>