<?xml version="1.0" encoding="utf-8"?>
<!-- Generator: Adobe Illustrator 22.1.0, SVG Export Plug-In . SVG Version: 6.00 Build 0)  -->
<svg version="1.1" id="Layer_1" xmlns="http://www.w3.org/2000/svg" xmlns:xlink="http://www.w3.org/1999/xlink" x="0px" y="0px"
	 viewBox="0 0 80 80" style="enable-background:new 0 0 80 80;" xml:space="preserve">
<style type="text/css">
	.st0{fill:#FFFFFF;}
</style>
<path class="st0" d="M52.3,49.8c5.7,0,11.3-2.2,15.6-6.5c4.2-4.2,6.5-9.7,6.5-15.6s-2.3-11.5-6.5-15.6s-9.7-6.5-15.6-6.5
	s-11.5,2.3-15.6,6.5c-8.6,8.6-8.6,22.6,0,31.3C41,47.6,46.6,49.8,52.3,49.8z M38.1,13.5c3.8-3.8,8.8-5.9,14.2-5.9s10.4,2.1,14.2,5.9
	s5.9,8.8,5.9,14.2s-2.1,10.4-5.9,14.2c-7.8,7.8-20.6,7.8-28.4,0C30.2,34.1,30.2,21.3,38.1,13.5z"/>
<path class="st0" d="M7.1,80c1.8,0,3.6-0.7,5-2.1l20-20c1-1,1.3-2.5,0.9-3.8l3.6-3.6c4.7,3.3,10.2,4.9,15.7,4.9
	c7.1,0,14.2-2.7,19.6-8.1c10.8-10.8,10.8-28.4,0-39.2C61.1-2.7,43.5-2.7,32.7,8.1c-9.6,9.6-10.7,24.5-3.2,35.3L25.9,47
	c-1.3-0.4-2.8-0.1-3.8,0.9l-20,20c-2.8,2.8-2.8,7.2,0,10C3.4,79.3,5.3,80,7.1,80z M34.1,9.5c10-10,26.3-10,36.4,0
	c10,10,10,26.3,0,36.4c-10,10-26.3,10-36.4,0S24.1,19.5,34.1,9.5z M30.7,45c0.6,0.8,1.3,1.5,2,2.3c0.7,0.7,1.5,1.4,2.2,2l-3.1,3.1
	l-4.3-4.3L30.7,45z M3.5,69.3l20-20c0.7-0.7,1.9-0.7,2.6,0l4.6,4.6c0.7,0.7,0.7,1.9,0,2.6l-20,20c-2,2-5.2,2-7.2,0
	C1.5,74.5,1.5,71.3,3.5,69.3z"/>
<path class="st0" d="M48.8,37.8c0.1,0,0.2,0,0.3,0l9.9-3.1c0.5-0.2,0.8-0.7,0.7-1.3s-0.7-0.8-1.3-0.7l-9.9,3.1
	c-0.5,0.2-0.8,0.7-0.7,1.3C48,37.5,48.4,37.8,48.8,37.8z"/>
<path class="st0" d="M58.4,37.9l-6.9,2.2c-0.5,0.2-0.8,0.7-0.7,1.3c0.1,0.4,0.5,0.7,1,0.7c0.1,0,0.2,0,0.3,0l6.9-2.2
	c0.5-0.2,0.8-0.7,0.7-1.3S59,37.8,58.4,37.9z"/>
</svg>
