<?xml version="1.0" encoding="utf-8"?>
<!-- Generator: Adobe Illustrator 22.1.0, SVG Export Plug-In . SVG Version: 6.00 Build 0)  -->
<svg version="1.1" id="Layer_1" xmlns="http://www.w3.org/2000/svg" xmlns:xlink="http://www.w3.org/1999/xlink" x="0px" y="0px"
	 viewBox="0 0 83.5 83.5" style="enable-background:new 0 0 83.5 83.5;" xml:space="preserve">
<style type="text/css">
	.st0{fill:#E6B980;}
</style>
<path class="st0" d="M58.7,83.5c0.6,0,1-0.4,1-1v-2.8h2.2c3.9,0,7.1-3.2,7.1-7.1V14.7c0-3.9-3.2-7.1-7.1-7.1h-6.7h-2.1V5.2
	c0-2.9-2.4-5.2-5.2-5.2H35.5c-2.9,0-5.2,2.4-5.2,5.2v2.4h-8.7c-3.9,0-7.1,3.2-7.1,7.1v57.9c0,3.9,3.2,7.1,7.1,7.1h2.8v2.8
	c0,0.6,0.4,1,1,1s1-0.4,1-1v-2.8h31.3v2.8C57.7,83.1,58.1,83.5,58.7,83.5z M47.2,28.6V9.7h4.9h2.1v18.9H47.2z M32.2,5.3
	c0-1.8,1.5-3.2,3.2-3.2h12.4c1.8,0,3.2,1.5,3.2,3.2v2.4h-4.9h-14V5.3H32.2z M16.5,72.6V14.7c0-2.8,2.3-5.1,5.1-5.1h9.7h14v19.9
	c0,0.6,0.4,1,1,1h3.3v39.4c0,0.6,0.4,1,1,1s1-0.4,1-1V30.6h3.7c0.6,0,1-0.4,1-1V9.7H62c2.8,0,5.1,2.3,5.1,5.1v57.9
	c0,2.8-2.3,5.1-5.1,5.1H21.5C18.7,77.7,16.5,75.4,16.5,72.6z"/>
<path class="st0" d="M25.4,17.4c0-0.6-0.4-1-1-1s-1,0.4-1,1V70c0,0.6,0.4,1,1,1s1-0.4,1-1V17.4z"/>
<path class="st0" d="M33.1,71c0.6,0,1-0.4,1-1V17.4c0-0.6-0.4-1-1-1s-1,0.4-1,1V70C32.1,70.5,32.6,71,33.1,71z"/>
<path class="st0" d="M41.8,71c0.6,0,1-0.4,1-1V17.4c0-0.6-0.4-1-1-1s-1,0.4-1,1V70C40.8,70.5,41.3,71,41.8,71z"/>
<path class="st0" d="M59.2,71c0.6,0,1-0.4,1-1V17.4c0-0.6-0.4-1-1-1s-1,0.4-1,1V70C58.2,70.5,58.7,71,59.2,71z"/>
</svg>
