<?xml version="1.0" encoding="utf-8"?>
<!-- Generator: Adobe Illustrator 22.1.0, SVG Export Plug-In . SVG Version: 6.00 Build 0)  -->
<svg version="1.1" id="Layer_1" xmlns="http://www.w3.org/2000/svg" xmlns:xlink="http://www.w3.org/1999/xlink" x="0px" y="0px"
	 viewBox="0 0 80 80" style="enable-background:new 0 0 80 80;" xml:space="preserve">
<style type="text/css">
	.st0{fill:#bcc6d0;}
</style>
<path class="st0" d="M1.7,35.8l2.9-2.5V79c0,0.6,0.4,1,1,1h69c0.6,0,1-0.4,1-1V33.3l2.9,2.5c0.2,0.2,0.4,0.2,0.7,0.2
	c0.3,0,0.6-0.1,0.8-0.3c0.4-0.4,0.3-1-0.1-1.4L66.3,22.6V1c0-0.6-0.4-1-1-1H53.8c-0.6,0-1,0.4-1,1v9.8L40.7,0.2
	c-0.4-0.3-0.9-0.3-1.3,0l-39,34c-0.4,0.4-0.5,1-0.1,1.4C0.6,36.1,1.2,36.1,1.7,35.8z M54.8,2h9.5v18.8l-9.5-8.3V2z M40,2.3
	l33.5,29.2V78h-67V31.5L40,2.3z"/>
<path class="st0" d="M48.7,51.8c0,0.6,0.4,1,1,1s1-0.4,1-1c0-2.1,1.7-3.7,3.7-3.7c0.6,0,1-0.4,1-1s-0.4-1-1-1
	C51.3,46,48.7,48.6,48.7,51.8z"/>
<path class="st0" d="M42.4,52c0.3,0,0.6,0,0.9,0C43.3,58,48.3,63,54.5,63c6.2,0,11.2-5,11.2-11.2c0-5.4-3.9-10-9-11
	c0.3-1.2,0.4-2.3,0.4-3.6c0-8.1-6.6-14.7-14.7-14.7c-8.1,0-14.7,6.6-14.7,14.7C27.6,45.3,34.2,52,42.4,52z M63.7,51.8
	c0,5.1-4.1,9.2-9.2,9.2s-9.2-4.1-9.2-9.2s4.1-9.2,9.2-9.2S63.7,46.7,63.7,51.8z M42.4,24.5c7,0,12.7,5.7,12.7,12.7
	c0,1.1-0.2,2.3-0.5,3.3c-0.1,0-0.1,0-0.2,0c-5.5,0-10.2,4-11.1,9.3c-0.3,0-0.7,0.1-1,0.1c-7,0-12.7-5.7-12.7-12.7
	S35.3,24.5,42.4,24.5z"/>
<path class="st0" d="M34.6,38.2c0.6,0,1-0.4,1-1c0-3.8,3.1-6.8,6.8-6.8c0.6,0,1-0.4,1-1s-0.4-1-1-1c-4.9,0-8.8,3.9-8.8,8.8
	C33.6,37.8,34,38.2,34.6,38.2z"/>
<path class="st0" d="M14.4,57.6l2.7,1.5c2.5,1.4,4.6,3.5,6,6l1.5,2.7c0.2,0.3,0.5,0.5,0.9,0.5s0.7-0.2,0.9-0.5l1.5-2.7
	c1.4-2.5,3.5-4.6,6-6l2.7-1.5c0.3-0.2,0.5-0.5,0.5-0.9s-0.2-0.7-0.5-0.9l-2.7-1.5c-2.5-1.4-4.6-3.5-6-6l-1.5-2.7
	c-0.4-0.6-1.4-0.6-1.8,0l-1.5,2.7c-1.4,2.5-3.5,4.6-6,6l-2.7,1.5c-0.3,0.2-0.5,0.5-0.5,0.9S14,57.5,14.4,57.6z M18,56.2
	c2.9-1.6,5.2-3.9,6.8-6.8l0.6-1.1l0.6,1.1c1.6,2.9,3.9,5.2,6.8,6.8l1.1,0.6l-1.1,0.6c-2.9,1.6-5.2,3.9-6.8,6.8l-0.6,1.1l-0.6-1.1
	c-1.6-2.9-3.9-5.2-6.8-6.8l-1.1-0.6L18,56.2z"/>
<path class="st0" d="M44.3,64.5h-2.5V62c0-0.6-0.4-1-1-1s-1,0.4-1,1v2.5h-2.5c-0.6,0-1,0.4-1,1s0.4,1,1,1h2.5V69c0,0.6,0.4,1,1,1
	s1-0.4,1-1v-2.5h2.5c0.6,0,1-0.4,1-1S44.9,64.5,44.3,64.5z"/>
<path class="st0" d="M15.2,39.3h2.5v2.5c0,0.6,0.4,1,1,1s1-0.4,1-1v-2.5h2.5c0.6,0,1-0.4,1-1s-0.4-1-1-1h-2.5v-2.5c0-0.6-0.4-1-1-1
	s-1,0.4-1,1v2.5h-2.5c-0.6,0-1,0.4-1,1S14.7,39.3,15.2,39.3z"/>
</svg>
