<?xml version="1.0" encoding="utf-8"?>
<!-- Generator: Adobe Illustrator 22.1.0, SVG Export Plug-In . SVG Version: 6.00 Build 0)  -->
<svg version="1.1" id="Layer_1" xmlns="http://www.w3.org/2000/svg" xmlns:xlink="http://www.w3.org/1999/xlink" x="0px" y="0px"
	 viewBox="0 0 80 80" style="enable-background:new 0 0 80 80;" xml:space="preserve">
<style type="text/css">
	.st0{fill:#E6B980;}
</style>
<path class="st0" d="M1,80h78c0.6,0,1-0.4,1-1V1c0-0.6-0.4-1-1-1H1C0.4,0,0,0.4,0,1v78C0,79.6,0.4,80,1,80z M2,2h76v76H2V2z"/>
<path class="st0" d="M23.7,25.4c0.6,0,1-0.4,1-1c0-8.4,6.9-15.3,15.3-15.3s15.3,6.9,15.3,15.3c0,0.6,0.4,1,1,1s1-0.4,1-1
	c0-9.5-7.8-17.3-17.3-17.3s-17.3,7.8-17.3,17.3C22.7,24.9,23.1,25.4,23.7,25.4z"/>
<path class="st0" d="M62.2,43.9H17.8c-0.6,0-1,0.4-1,1s0.4,1,1,1h44.5c0.6,0,1-0.4,1-1S62.8,43.9,62.2,43.9z"/>
<path class="st0" d="M62.2,34.9H17.8c-0.6,0-1,0.4-1,1s0.4,1,1,1h44.5c0.6,0,1-0.4,1-1S62.8,34.9,62.2,34.9z"/>
<path class="st0" d="M33.5,21.5c0,3.6,2.9,6.5,6.5,6.5s6.5-2.9,6.5-6.5S43.6,15,40,15S33.5,17.9,33.5,21.5z M44.5,21.5
	c0,2.5-2,4.5-4.5,4.5s-4.5-2-4.5-4.5s2-4.5,4.5-4.5S44.5,19,44.5,21.5z"/>
<path class="st0" d="M49.5,60.1L43.8,59l-2.8-5.1c-0.2-0.3-0.5-0.5-0.9-0.5s-0.7,0.2-0.9,0.5L36.3,59l-5.8,1.1
	c-0.4,0.1-0.7,0.3-0.8,0.7c-0.1,0.3,0,0.7,0.2,1l4,4.3l-0.7,5.8c0,0.4,0.1,0.7,0.4,0.9c0.2,0.1,0.4,0.2,0.6,0.2c0.1,0,0.3,0,0.4-0.1
	l5.3-2.5l5.3,2.5c0.3,0.2,0.7,0.1,1-0.1c0.3-0.2,0.4-0.6,0.4-0.9L46,66l4-4.3c0.2-0.3,0.3-0.6,0.2-1C50.2,60.4,49.9,60.1,49.5,60.1z
	 M44.3,65c-0.2,0.2-0.3,0.5-0.3,0.8l0.6,4.5l-4.1-1.9c-0.3-0.1-0.6-0.1-0.8,0l-4.1,1.9l0.6-4.5c0-0.3-0.1-0.6-0.3-0.8l-3.1-3.3
	l4.4-0.9c0.3-0.1,0.5-0.2,0.7-0.5l2.2-4l2.2,4c0.1,0.3,0.4,0.4,0.7,0.5l4.4,0.9L44.3,65z"/>
</svg>
