<?xml version="1.0" encoding="utf-8"?>
<!-- Generator: Adobe Illustrator 22.1.0, SVG Export Plug-In . SVG Version: 6.00 Build 0)  -->
<svg version="1.1" id="Layer_1" xmlns="http://www.w3.org/2000/svg" xmlns:xlink="http://www.w3.org/1999/xlink" x="0px" y="0px"
	 viewBox="0 0 80.8 80.8" style="enable-background:new 0 0 80.8 80.8;" xml:space="preserve">
<style type="text/css">
	.st0{fill:white;}
</style>
<path class="st0" d="M45.4,31.5c0.9,0,1.8-0.6,2-1.5l5.1-16.8c0.3-1.1-0.3-2.3-1.4-2.7L16.7,0.1c-0.5-0.2-1.1-0.1-1.6,0.2
	s-0.9,0.7-1,1.3L9,18.4c-0.3,1.1,0.3,2.3,1.4,2.7l34.4,10.3C45,31.4,45.2,31.5,45.4,31.5z M10.9,18.9L16,2.1C16,2,16.1,2,16.2,2
	l34.4,10.3c0.1,0,0.1,0.1,0.1,0.2l-5.1,16.8c0,0.1-0.1,0.1-0.2,0.1L11,19.1C10.9,19.1,10.8,19,10.9,18.9z"/>
<path class="st0" d="M46.9,17.8c0.1-0.3,0-0.5-0.1-0.8c-0.1-0.2-0.3-0.4-0.6-0.5c-1.6-0.5-2.5-2.2-2-3.7c0.2-0.5-0.1-1.1-0.7-1.2
	L22.3,5.2c-0.3-0.1-0.5,0-0.8,0.1c-0.2,0.1-0.4,0.3-0.5,0.6c-0.2,0.8-0.7,1.4-1.5,1.8c-0.7,0.4-1.5,0.5-2.3,0.2
	c-0.3-0.1-0.5,0-0.8,0.1c-0.2,0.1-0.4,0.3-0.5,0.6l-1.5,5.1c-0.1,0.3,0,0.5,0.1,0.8c0.1,0.2,0.3,0.4,0.6,0.5c1.6,0.5,2.5,2.2,2,3.7
	c-0.2,0.5,0.1,1.1,0.7,1.2l21.3,6.4c0.1,0,0.2,0,0.3,0c0.2,0,0.3,0,0.5-0.1s0.4-0.3,0.5-0.6c0.5-1.6,2.2-2.5,3.7-2
	c0.5,0.2,1.1-0.1,1.2-0.7L46.9,17.8z M43.7,21.5c-2-0.2-3.9,0.9-4.9,2.6l-19.5-5.9c0.2-2-0.9-3.9-2.6-4.9l1-3.4
	c1,0.1,1.9-0.1,2.8-0.6s1.6-1.2,2-2L42,13.2c-0.2,2,0.9,3.9,2.6,4.9L43.7,21.5z"/>
<path class="st0" d="M74.6,29c-0.2-0.5-0.5-1-1-1.3s-1.1-0.4-1.6-0.2L37.4,37c-1.1,0.3-1.8,1.5-1.5,2.6l4.7,16.9
	c0.3,0.9,1.1,1.6,2.1,1.6c0.2,0,0.4,0,0.6-0.1l34.6-9.6c1.1-0.3,1.8-1.5,1.5-2.6L74.6,29z M77.3,46.6l-34.6,9.6
	c-0.1,0-0.1,0-0.2-0.1l-4.7-16.9c0-0.1,0-0.1,0.1-0.2l34.6-9.5l0,0c0.1,0,0.1,0,0.1,0.1l4.7,16.9C77.4,46.5,77.3,46.6,77.3,46.6z"/>
<path class="st0" d="M71.2,35.3c-1.6,0.4-3.2-0.5-3.7-2.1c-0.1-0.5-0.7-0.8-1.2-0.7l-21.4,5.9c-0.3,0.1-0.5,0.2-0.6,0.5
	c-0.1,0.2-0.2,0.5-0.1,0.8c0.4,1.6-0.5,3.2-2.1,3.7c-0.5,0.1-0.8,0.7-0.7,1.2l1.4,5.1c0.1,0.5,0.7,0.8,1.2,0.7
	c1.6-0.4,3.2,0.5,3.7,2.1c0.1,0.4,0.5,0.7,1,0.7c0.1,0,0.2,0,0.3,0l21.3-6c0.3-0.1,0.5-0.2,0.6-0.5c0.1-0.2,0.2-0.5,0.1-0.8
	c-0.4-1.6,0.5-3.2,2.1-3.7c0.3-0.1,0.5-0.2,0.6-0.5c0.1-0.2,0.2-0.5,0.1-0.8l-1.4-5.1C72.3,35.4,71.7,35.1,71.2,35.3z M69.6,42.8
	c-0.5,0.9-0.7,1.8-0.6,2.8L49.3,51c-0.9-1.7-2.6-2.7-4.5-2.7c-0.1,0-0.2,0-0.3,0l-0.9-3.4c1.8-0.9,2.9-2.8,2.7-4.8L66,34.7
	c0.4,0.9,1.1,1.6,2,2.1s1.8,0.7,2.8,0.6l0.9,3.4C70.8,41.2,70.1,41.9,69.6,42.8z"/>
<path class="st0" d="M43.9,63L15.3,41.3c-0.5-0.3-1-0.5-1.6-0.4s-1.1,0.4-1.4,0.8l-10.6,14c-0.3,0.5-0.5,1-0.4,1.6s0.4,1.1,0.8,1.4
	l28.6,21.7c0.4,0.3,0.8,0.4,1.3,0.4c0.6,0,1.3-0.3,1.7-0.8l10.6-14C45,65,44.8,63.7,43.9,63z M42.7,64.8l-10.6,14
	c0,0.1-0.1,0.1-0.2,0L3.3,57.1c-0.1,0-0.1-0.1,0-0.2l10.6-14c0-0.1,0.1-0.1,0.2,0l28.6,21.7C42.7,64.6,42.7,64.7,42.7,64.8z"/>
<path class="st0" d="M36.6,62.8c0.3-0.4,0.2-1.1-0.2-1.4L18.8,48c-0.3-0.2-0.5-0.2-0.8-0.2s-0.5,0.2-0.7,0.4c-0.5,0.6-1.2,1-2,1.2
	c-0.8,0.1-1.6-0.1-2.2-0.6c-0.4-0.3-1.1-0.2-1.4,0.2l-3.2,4.2c-0.2,0.2-0.2,0.5-0.2,0.7c0,0.2,0.2,0.5,0.4,0.7c0.6,0.5,1,1.2,1.2,2
	c0.1,0.8-0.1,1.6-0.6,2.2c-0.3,0.4-0.2,1.1,0.2,1.4l17.7,13.4c0.2,0.1,0.4,0.2,0.6,0.2c0.3,0,0.6-0.1,0.8-0.4c1-1.3,2.9-1.6,4.2-0.6
	C33,73,33.3,73,33.5,73c0.3,0,0.5-0.2,0.7-0.4l3.2-4.2c0.3-0.4,0.2-1.1-0.2-1.4C35.9,66,35.6,64.1,36.6,62.8z M33.1,70.7
	c-1.8-0.9-4-0.6-5.5,0.7L11.4,59.2c0.4-0.9,0.6-1.9,0.4-2.8c-0.1-1-0.5-1.9-1.2-2.6l2.1-2.8c1.8,0.9,4,0.6,5.5-0.7l16.3,12.3
	c-0.9,1.8-0.6,4,0.7,5.5L33.1,70.7z"/>
<path class="st0" d="M70.1,54.6c-0.6,0-1,0.5-1,1l0.1,7.3c0,0.5,0.5,1,1,1l0,0c0.6,0,1-0.5,1-1l-0.1-7.3
	C71.1,55,70.6,54.6,70.1,54.6z"/>
<path class="st0" d="M25.7,46C25.7,46,25.8,46,25.7,46c0.6,0,1-0.5,1-1l-0.2-10.7c0-0.6-0.5-1-1-1c-0.6,0-1,0.5-1,1L24.7,45
	C24.8,45.6,25.2,46,25.7,46z"/>
<path class="st0" d="M74.6,56.7c-0.6,0-1,0.5-1,1l0.1,5.1c0,0.5,0.5,1,1,1l0,0c0.6,0,1-0.5,1-1l-0.1-5.1
	C75.6,57.2,75.2,56.8,74.6,56.7z"/>
<path class="st0" d="M74.6,55.7L74.6,55.7c0.6,0,1-0.5,1-1V53c0-0.6-0.4-1-1-1s-1,0.5-1,1v1.7C73.6,55.2,74,55.7,74.6,55.7z"/>
<path class="st0" d="M65.3,56.1c-0.6,0-1,0.5-1,1v1.7c0,0.5,0.5,1,1,1l0,0c0.6,0,1-0.5,1-1v-1.7C66.3,56.5,65.8,56.1,65.3,56.1z"/>
<path class="st0" d="M20.1,27.2c-0.6,0-1,0.5-1,1v1.7c0,0.5,0.5,1,1,1l0,0c0.6,0,1-0.5,1-1v-1.7C21.1,27.6,20.6,27.2,20.1,27.2z"/>
<path class="st0" d="M25.5,31.7c0.6,0,1-0.5,1-1V29c0-0.6-0.4-1-1-1s-1,0.5-1,1v1.7C24.5,31.3,24.9,31.7,25.5,31.7L25.5,31.7z"/>
<path class="st0" d="M7.9,72.2c-0.6,0-1,0.4-1,1v4.9c0,0.6,0.4,1,1,1s1-0.4,1-1v-4.9C8.9,72.6,8.4,72.2,7.9,72.2z"/>
<path class="st0" d="M7.8,70.6L7.8,70.6c0.6,0,1-0.5,1-1v-1.7c0-0.6-0.5-1-1-1c-0.6,0-1,0.5-1,1v1.7C6.8,70.2,7.3,70.6,7.8,70.6z"/>
<path class="st0" d="M30.5,35.7c0.6,0,1-0.5,1-1l-0.1-3.4c0-0.6-0.5-1-1-1c-0.6,0-1,0.5-1,1l0.1,3.4C29.5,35.2,30,35.7,30.5,35.7
	L30.5,35.7z"/>
<path class="st0" d="M12,70.5c-0.6,0-1,0.5-1,1l0.1,3.4c0,0.5,0.5,1,1,1l0,0c0.6,0,1-0.5,1-1L13,71.5C13,70.9,12.5,70.5,12,70.5z"/>
<path class="st0" d="M30.6,40.4L30.6,40.4c0.6,0,1-0.5,1-1v-1.7c0-0.6-0.5-1-1-1c-0.6,0-1,0.5-1,1v1.7C29.6,40,30.1,40.4,30.6,40.4z
	"/>
</svg>
