<?xml version="1.0" encoding="utf-8"?>
<!-- Generator: Adobe Illustrator 22.1.0, SVG Export Plug-In . SVG Version: 6.00 Build 0)  -->
<svg version="1.1" id="Layer_1" xmlns="http://www.w3.org/2000/svg" xmlns:xlink="http://www.w3.org/1999/xlink" x="0px" y="0px"
	 viewBox="0 0 80 80" style="enable-background:new 0 0 80 80;" xml:space="preserve">
<style type="text/css">
	.st0{fill:#E6B980;}
</style>
<path class="st0" d="M69,6H10.7c-0.6,0-1,0.4-1,1v34.8c0,0.6,0.4,1,1,1H69c0.6,0,1-0.4,1-1V7C70,6.4,69.6,6,69,6z M68,40.7H11.7V8
	H68V40.7z"/>
<path class="st0" d="M3.3,80h73.3c1,0,1.9-0.4,2.6-1.2c0.6-0.7,0.9-1.7,0.7-2.7l-4.9-28.7V5.3c0-2.9-2.4-5.3-5.3-5.3H10
	C7.1,0,4.7,2.4,4.7,5.3v42.2L0,76.2c-0.2,1,0.1,1.9,0.7,2.7C1.4,79.6,2.4,80,3.3,80z M6.7,5.3C6.7,3.5,8.2,2,10,2h59.8
	c1.8,0,3.3,1.5,3.3,3.3v41.3H6.7V5.3z M2,76.5l4.5-27.9h66.7L78,76.5c0.1,0.4,0,0.8-0.3,1.1c-0.3,0.3-0.6,0.5-1,0.5H3.3
	c-0.4,0-0.8-0.2-1-0.5C2.1,77.2,2,76.9,2,76.5z"/>
<path class="st0" d="M8.6,71.8h62.7c0.3,0,0.6-0.1,0.8-0.3s0.3-0.5,0.2-0.8l-2.3-17c-0.1-0.5-0.5-0.9-1-0.9H10.7
	c-0.5,0-0.9,0.4-1,0.9l-2.1,17c0,0.3,0.1,0.6,0.2,0.8C8.1,71.7,8.4,71.8,8.6,71.8z M10.6,63.3h13.1L23,69.8H9.8L10.6,63.3z M41,61.3
	v-6.5h11.9l0.6,6.5H41z M53.7,63.3l0.6,6.5H41v-6.5H53.7z M39,61.3H25.9l0.6-6.5H39V61.3z M39,63.3v6.5H25.1l0.6-6.5H39z M56.3,69.8
	l-0.6-6.5h13.6l0.9,6.5H56.3z M69,61.3H55.5l-0.6-6.5h13.3L69,61.3z M24.5,54.8l-0.6,6.5H10.8l0.8-6.5H24.5z"/>
<path class="st0" d="M19.7,24.6l1.3-1.1v13c0,0.6,0.4,1,1,1h20.8c0.6,0,1-0.4,1-1v-13l1.3,1.1c0.2,0.2,0.4,0.2,0.7,0.2
	c0.3,0,0.6-0.1,0.8-0.3c0.4-0.4,0.3-1-0.1-1.4L33,11.6c-0.4-0.3-0.9-0.3-1.3,0L18.3,23.1c-0.4,0.4-0.5,1-0.1,1.4
	C18.6,24.9,19.2,25,19.7,24.6z M32.3,13.7l9.4,8.1v13.7H22.9V21.8L32.3,13.7z"/>
<path class="st0" d="M54.9,25.4v7.7c-1.6-0.5-2.7-2-2.7-3.7c0-0.6-0.4-1-1-1s-1,0.4-1,1c0,2.9,2,5.3,4.7,5.8v1.3c0,0.6,0.4,1,1,1
	s1-0.4,1-1v-1.2c2.9-0.4,5.1-2.9,5.1-5.9s-2.2-5.5-5.1-5.9v-7.8c1.7,0.4,2.9,2,2.9,3.8c0,0.6,0.4,1,1,1s1-0.4,1-1
	c0-2.9-2.1-5.4-4.9-5.8v-1.2c0-0.6-0.4-1-1-1s-1,0.4-1,1v1.2c-2.8,0.5-4.9,2.9-4.9,5.8S52.1,24.9,54.9,25.4z M60,29.4
	c0,1.9-1.3,3.5-3.1,3.8v-7.7C58.7,26,60,27.5,60,29.4z M54.9,15.8v7.6c-1.7-0.4-2.9-2-2.9-3.8S53.2,16.2,54.9,15.8z"/>
</svg>
