<?xml version="1.0" encoding="utf-8"?>
<!-- Generator: Adobe Illustrator 22.1.0, SVG Export Plug-In . SVG Version: 6.00 Build 0)  -->
<svg version="1.1" id="Layer_1" xmlns="http://www.w3.org/2000/svg" xmlns:xlink="http://www.w3.org/1999/xlink" x="0px" y="0px"
	 viewBox="0 0 80 80" style="enable-background:new 0 0 80 80;" xml:space="preserve">
<style type="text/css">
	.st0{fill:#FFFFFF;}
</style>
<path class="st0" d="M64.1,31.5c0.6,0,1-0.4,1-1V1c0-0.6-0.4-1-1-1H15.9c-0.6,0-1,0.4-1,1v29.5c0,0.6,0.4,1,1,1H39v7.7H12
	c-0.6,0-1,0.4-1,1v8.4l-2.7-2.7c-0.4-0.4-1-0.4-1.4,0s-0.4,1,0,1.4l4.4,4.4c0.2,0.2,0.5,0.3,0.7,0.3s0.5-0.1,0.7-0.3l4.4-4.4
	c0.4-0.4,0.4-1,0-1.4s-1-0.4-1.4,0L13,48.5v-7.4h26v7.4l-2.7-2.7c-0.4-0.4-1-0.4-1.4,0s-0.4,1,0,1.4l4.4,4.4
	c0.2,0.2,0.5,0.3,0.7,0.3s0.5-0.1,0.7-0.3l4.4-4.4c0.4-0.4,0.4-1,0-1.4s-1-0.4-1.4,0L41,48.5v-7.4h26v7.4l-2.7-2.7
	c-0.4-0.4-1-0.4-1.4,0s-0.4,1,0,1.4l4.4,4.4c0.2,0.2,0.5,0.3,0.7,0.3s0.5-0.1,0.7-0.3l4.4-4.4c0.4-0.4,0.4-1,0-1.4s-1-0.4-1.4,0
	L69,48.5v-8.4c0-0.6-0.4-1-1-1H41v-7.7H64.1z M16.9,2h46.2v27.5H16.9V2z"/>
<path class="st0" d="M1,80h22.1c0.6,0,1-0.4,1-1V56.9c0-0.6-0.4-1-1-1H1c-0.6,0-1,0.4-1,1V79C0,79.6,0.4,80,1,80z M2,57.9h20.1V78H2
	V57.9z"/>
<path class="st0" d="M51,55.9H29c-0.6,0-1,0.4-1,1V79c0,0.6,0.4,1,1,1H51c0.6,0,1-0.4,1-1V56.9C52,56.4,51.6,55.9,51,55.9z M50,78
	H30V57.9H50V78z"/>
<path class="st0" d="M79,55.9H56.9c-0.6,0-1,0.4-1,1V79c0,0.6,0.4,1,1,1H79c0.6,0,1-0.4,1-1V56.9C80,56.4,79.6,55.9,79,55.9z M78,78
	H57.9V57.9H78V78z"/>
</svg>
