<svg id="Layer_1" data-name="Layer 1" xmlns="http://www.w3.org/2000/svg" viewBox="0 0 69.4 79.7"><defs><style>.cls-1{fill:#e6b980;}</style></defs><title>reload-comp-slant-icon</title><path class="cls-1" d="M62.05,49.6a.78.78,0,0,0,.7-.3,1.14,1.14,0,0,0,.3-.8l-2.6-25.4a1.06,1.06,0,0,0-1-.9H21.15a1.06,1.06,0,0,0-1,.9l-2.6,25.4a1.14,1.14,0,0,0,.3.8,1.08,1.08,0,0,0,.7.3h14.5l-.7,6.3h-8a1,1,0,0,0,0,2h32a1,1,0,0,0,0-2h-8l-.7-6.3ZM58.51,24.2l2,22.93H19.76L22.05,24.2ZM46.25,55.8H34.35l.7-6.3h10.4Z" transform="translate(-5.15)"/><path class="cls-1" d="M36.55,72.4a32.66,32.66,0,0,1,.2-65l-3.5,3.5a1,1,0,0,0,0,1.4,1,1,0,0,0,1.4,0L40,7a1,1,0,0,0,0-1.4L34.65.3a1,1,0,0,0-1.4,0,1,1,0,0,0,0,1.4l3.6,3.6a34.65,34.65,0,0,0-.6,69h.1a1.06,1.06,0,0,0,1-.9A.85.85,0,0,0,36.55,72.4Z" transform="translate(-5.15)"/><path class="cls-1" d="M43.45,5.3a1.07,1.07,0,0,0-1.1.9,1,1,0,0,0,.9,1.1,32.66,32.66,0,0,1-.2,65l3.5-3.5a1,1,0,1,0-1.4-1.4l-5.3,5.3a1,1,0,0,0,0,1.4l5.3,5.3a1,1,0,0,0,1.4,0,1,1,0,0,0,0-1.4L43,74.4a34.71,34.71,0,0,0,.5-69.1Z" transform="translate(-5.15)"/></svg>