<?xml version="1.0" encoding="utf-8"?>
<!-- Generator: Adobe Illustrator 22.1.0, SVG Export Plug-In . SVG Version: 6.00 Build 0)  -->
<svg version="1.1" id="Layer_1" xmlns="http://www.w3.org/2000/svg" xmlns:xlink="http://www.w3.org/1999/xlink" x="0px" y="0px"
	 viewBox="0 0 74.2 74.2" style="enable-background:new 0 0 74.2 74.2;" xml:space="preserve">
<style type="text/css">
	.st0{fill:#FFFFFF;}
</style>
<path class="st0" d="M50.9,0.7c-0.1-0.4-0.5-0.7-1-0.7H25.2c-0.4,0-0.7,0.2-0.9,0.5C18.9,9.7,7.3,9,7.2,8.9C6.9,8.9,6.6,9,6.4,9.2
	C6.2,9.4,6.1,9.7,6.1,9.9c0,0.4,1.3,40.3,30.4,64.1c0.2,0.2,0.4,0.2,0.6,0.2s0.4-0.1,0.6-0.2c29.1-23.8,30.4-62.7,30.4-63
	c0-0.5-0.4-1-0.9-1C53.5,9.1,51,1,50.9,0.7z M37.2,71.9c-25.1-21.1-28.6-54.7-29-61c3.2,0,12.4-0.8,17.6-9h23.4
	c0.9,2.2,4.7,8.8,17,9.9C65.8,17.8,62.4,50.7,37.2,71.9z"/>
<path class="st0" d="M48.7,27.5l-7.4-1.1L38,19.7c-0.2-0.3-0.5-0.6-0.9-0.6l0,0c-0.4,0-0.7,0.2-0.9,0.6l-3.3,6.7l-7.4,1.1
	c-0.4,0.1-0.7,0.3-0.8,0.7s0,0.8,0.3,1l5.3,5.2L29,41.7c-0.1,0.4,0.1,0.8,0.4,1c0.3,0.2,0.7,0.3,1.1,0.1l6.6-3.4l6.6,3.5
	c0.2-0.1,0.4-0.1,0.5-0.1c0.2,0,0.4-0.1,0.6-0.2c0.3-0.2,0.5-0.6,0.4-1L44,34.3l5.3-5.2c0.3-0.3,0.4-0.7,0.3-1
	C49.4,27.8,49.1,27.5,48.7,27.5z M42.2,33.3c-0.2,0.2-0.3,0.5-0.3,0.9l1,5.8l-5.2-2.8c-0.1-0.1-0.3-0.1-0.5-0.1s-0.3,0-0.5,0.1
	L31.4,40l1-5.8c0.1-0.3-0.1-0.7-0.3-0.9l-4.2-4.1l5.9-0.8c0.3,0,0.6-0.3,0.8-0.5l2.6-5.3l2.6,5.3c0.1,0.3,0.4,0.5,0.8,0.5l5.9,0.9
	L42.2,33.3z"/>
</svg>
