<svg id="Layer_1" data-name="Layer 1" xmlns="http://www.w3.org/2000/svg" viewBox="0 0 80 80"><defs><style>.cls-1{fill:#fff;}</style></defs><title>speech-bubble-lines-icon-white</title><path class="cls-1" d="M36.67,16.06a1,1,0,0,0-1.31,0L15.59,33.12a1,1,0,0,0,1.31,1.51l2.71-2.34V57a1,1,0,0,0,1,1H51.42a1,1,0,0,0,1-1V32.29l2.71,2.34a1,1,0,0,0,1.31-1.51ZM50.42,56H21.61V30.57L36,18.14l14.4,12.43V56Z"/><path class="cls-1" d="M72,62V55.9H73.9A6.11,6.11,0,0,0,80,49.79V6.1A6.11,6.11,0,0,0,73.9,0H13.63a6.11,6.11,0,0,0-6.1,6.1V7.17H6.1A6.11,6.11,0,0,0,0,13.27V62a6.11,6.11,0,0,0,6.1,6.1H34a7,7,0,0,1,5,2.09l9.34,9.53a1,1,0,0,0,.72.3,1,1,0,0,0,.71-.3l9.35-9.53a7,7,0,0,1,5-2.09h1.83A6.11,6.11,0,0,0,72,62ZM9.53,6.1A4.11,4.11,0,0,1,13.63,2H73.9A4.11,4.11,0,0,1,78,6.1V49.8a4.11,4.11,0,0,1-4.1,4.1H72V13.27a6.11,6.11,0,0,0-6.1-6.1H9.53ZM70,62a4.11,4.11,0,0,1-4.1,4.1H64.1a9,9,0,0,0-6.4,2.69l-8.63,8.8-8.64-8.8A9,9,0,0,0,34,66.08H6.1A4.11,4.11,0,0,1,2,62V13.27a4.11,4.11,0,0,1,4.1-4.1H65.93a4.11,4.11,0,0,1,4.1,4.1V62Z"/></svg>