<?xml version="1.0" encoding="utf-8"?>
<!-- Generator: Adobe Illustrator 22.1.0, SVG Export Plug-In . SVG Version: 6.00 Build 0)  -->
<svg version="1.1" id="Layer_1" xmlns="http://www.w3.org/2000/svg" xmlns:xlink="http://www.w3.org/1999/xlink" x="0px" y="0px"
	 viewBox="0 0 80 80" style="enable-background:new 0 0 80 80;" xml:space="preserve">
<style type="text/css">
	.st0{fill:#FFFFFF;}
</style>
<path class="st0" d="M66.5,27.1C73.9,27.1,80,21,80,13.5S73.9,0,66.5,0C59,0,52.9,6.1,52.9,13.5c0,3.2,1.1,6.1,3,8.4l-5.5,5.5
	c-2.8-2.3-6.5-3.8-10.4-3.8c-4.3,0-8.3,1.7-11.2,4.5l-5.4-5.4c2.3-2.4,3.6-5.7,3.6-9.2C27.1,6.1,21,0,13.5,0C6.1,0,0,6.1,0,13.5
	s6.1,13.5,13.5,13.5c3.2,0,6.1-1.1,8.4-3l5.5,5.5c-2.3,2.8-3.8,6.5-3.8,10.4c0,4.3,1.7,8.3,4.5,11.2l-5.4,5.4
	c-2.4-2.3-5.7-3.6-9.2-3.6C6.1,52.9,0,59,0,66.5S6.1,80,13.5,80c7.5,0,13.5-6.1,13.5-13.5c0-3.2-1.1-6.1-3-8.4l5.5-5.5
	c2.8,2.3,6.5,3.8,10.4,3.8c4.3,0,8.3-1.7,11.2-4.5l5.4,5.4c-2.3,2.4-3.6,5.7-3.6,9.2C52.9,73.9,59,80,66.5,80
	C73.9,80,80,73.9,80,66.5s-6.1-13.5-13.5-13.5c-3.2,0-6.1,1.1-8.4,3l-5.5-5.5c2.3-2.8,3.8-6.5,3.8-10.4c0-4.3-1.7-8.3-4.5-11.2
	l5.4-5.4C59.7,25.7,62.9,27.1,66.5,27.1z M59.6,22.8c0.1-3.7,3.2-6.7,6.9-6.7c3.7,0,6.7,2.9,6.9,6.6c-1.9,1.5-4.3,2.4-7,2.4
	C63.9,25.1,61.5,24.2,59.6,22.8z M62.7,10.3c0-2.1,1.7-3.8,3.8-3.8s3.8,1.7,3.8,3.8s-1.7,3.8-3.8,3.8S62.7,12.4,62.7,10.3z M66.5,2
	C72.8,2,78,7.2,78,13.5c0,2.9-1.1,5.5-2.8,7.5c-0.6-2.8-2.6-5-5.1-6.2c1.4-1.1,2.2-2.7,2.2-4.6c0-3.2-2.6-5.8-5.8-5.8
	s-5.8,2.6-5.8,5.8c0,1.9,0.9,3.5,2.2,4.6c-2.6,1.1-4.5,3.4-5.1,6.3c-1.8-2-2.9-4.7-2.9-7.6C54.9,7.2,60.1,2,66.5,2z M2,13.5
	C2,7.2,7.2,2,13.5,2s11.5,5.2,11.5,11.5c0,2.9-1.1,5.5-2.8,7.5c-0.6-2.8-2.6-5-5.1-6.2c1.4-1.1,2.2-2.7,2.2-4.6
	c0-3.2-2.6-5.8-5.8-5.8s-5.8,2.6-5.8,5.8c0,1.9,0.9,3.5,2.2,4.6c-2.6,1.1-4.5,3.4-5.1,6.3C3.1,19.1,2,16.4,2,13.5z M9.8,10.3
	c0-2.1,1.7-3.8,3.8-3.8s3.8,1.7,3.8,3.8s-1.7,3.8-3.8,3.8S9.8,12.4,9.8,10.3z M6.7,22.8c0.1-3.7,3.2-6.7,6.9-6.7
	c3.7,0,6.7,2.9,6.9,6.6c-1.9,1.5-4.3,2.4-7,2.4C11,25.1,8.6,24.2,6.7,22.8z M6.7,75.7C6.8,72,9.9,69,13.6,69c3.7,0,6.7,2.9,6.9,6.6
	c-1.9,1.5-4.3,2.4-7,2.4C11,78,8.6,77.1,6.7,75.7z M9.8,63.2c0-2.1,1.7-3.8,3.8-3.8s3.8,1.7,3.8,3.8S15.7,67,13.6,67
	S9.8,65.3,9.8,63.2z M22.3,74c-0.6-2.8-2.6-5-5.1-6.2c1.4-1.1,2.2-2.7,2.2-4.6c0-3.2-2.6-5.8-5.8-5.8S7.8,60,7.8,63.2
	c0,1.9,0.9,3.5,2.2,4.6c-2.6,1.1-4.5,3.4-5.1,6.3C3.1,72,2,69.4,2,66.5c0-6.4,5.2-11.5,11.5-11.5s11.5,5.2,11.5,11.5
	C25.1,69.3,24,71.9,22.3,74z M59.6,75.7c0.1-3.7,3.2-6.7,6.9-6.7c3.7,0,6.7,2.9,6.9,6.6c-1.9,1.5-4.3,2.4-7,2.4
	C63.9,78,61.5,77.1,59.6,75.7z M62.7,63.2c0-2.1,1.7-3.8,3.8-3.8s3.8,1.7,3.8,3.8S68.6,67,66.5,67S62.7,65.3,62.7,63.2z M78,66.5
	c0,2.9-1.1,5.5-2.8,7.5c-0.6-2.8-2.6-5-5.1-6.2c1.4-1.1,2.2-2.7,2.2-4.6c0-3.2-2.6-5.8-5.8-5.8s-5.8,2.6-5.8,5.8
	c0,1.9,0.9,3.5,2.2,4.6c-2.6,1.1-4.5,3.4-5.1,6.3c-1.8-2-2.9-4.7-2.9-7.6c0-6.4,5.2-11.5,11.5-11.5S78,60.1,78,66.5z M40,54.3
	c-7.9,0-14.3-6.4-14.3-14.3S32.1,25.7,40,25.7S54.3,32.1,54.3,40S47.9,54.3,40,54.3z"/>
<path class="st0" d="M48.3,36.6l-5.1-0.7l-2.3-4.6c-0.3-0.7-1.5-0.7-1.8,0l-2.3,4.6l-5.1,0.7c-0.4,0.1-0.7,0.3-0.8,0.7
	c-0.1,0.4,0,0.8,0.3,1l3.7,3.6L33.9,47c-0.1,0.4,0.1,0.8,0.4,1c0.3,0.2,0.7,0.3,1.1,0.1l4.6-2.4l4.6,2.4c0.1,0.1,0.3,0.1,0.5,0.1
	c0.2,0,0.4-0.1,0.6-0.2c0.3-0.2,0.5-0.6,0.4-1l-0.9-5.1l3.7-3.6c0.3-0.3,0.4-0.7,0.3-1C49,36.9,48.7,36.7,48.3,36.6z M43.4,40.9
	c-0.2,0.2-0.3,0.6-0.3,0.9l0.6,3.6l-3.3-1.7c-0.1-0.1-0.3-0.1-0.5-0.1s-0.3,0-0.5,0.1l-3.3,1.7l0.6-3.6c0.1-0.3-0.1-0.7-0.3-0.9
	L34,38.3l3.7-0.5c0.3,0,0.6-0.3,0.8-0.5l1.6-3.3l1.6,3.3c0.1,0.3,0.4,0.5,0.8,0.5l3.7,0.5L43.4,40.9z"/>
</svg>
