<svg id="Layer_1" data-name="Layer 1" xmlns="http://www.w3.org/2000/svg" viewBox="0 0 735.93 42.98"><defs><style>.cls-1{fill:#fff;}</style></defs><title>Artboard 7</title><path class="cls-1" d="M22.56,8.35,8,42.38H0L18.8.6h7.64L45.3,42.38H37.19Zm0,0"/><path class="cls-1" d="M88.73,42.38,80.19,30.14a14.35,14.35,0,0,1-1.61.06H69.15V42.38H61.39V.6H78.58c11,0,17.79,5.61,17.79,14.86,0,6.33-3.22,11-8.89,13.19l9.6,13.73ZM78.22,7.16H69.15V23.81h9.07c6.81,0,10.33-3.1,10.33-8.35S85,7.16,78.22,7.16Z"/><path class="cls-1" d="M112.81,21.49C112.81,9,122.36,0,135.2,0c6.8,0,12.65,2.45,16.53,7l-5,4.72a14.67,14.67,0,0,0-11.16-4.9c-8.65,0-14.92,6.09-14.92,14.69s6.27,14.68,14.92,14.68a14.52,14.52,0,0,0,11.16-5l5,4.77c-3.88,4.54-9.73,7-16.6,7C122.36,43,112.81,34,112.81,21.49Z"/><path class="cls-1" d="M185.72,8.35l-14.56,34h-8L182,.6h7.64l18.86,41.78h-8.11Zm0,0"/><path class="cls-1" d="M286.76,15.46c0,9.19-6.81,14.86-17.79,14.86h-9.43V42.38h-7.76V.6H269C280,.6,286.76,6.21,286.76,15.46Zm-7.82,0c0-5.25-3.52-8.3-10.33-8.3h-9.07V23.75h9.07C275.42,23.75,278.94,20.71,278.94,15.46Z"/><path class="cls-1" d="M332.63,42.38l-8.54-12.24a14.35,14.35,0,0,1-1.61.06h-9.43V42.38h-7.76V.6h17.19c11,0,17.79,5.61,17.79,14.86,0,6.33-3.22,11-8.89,13.19L341,42.38ZM322.12,7.16h-9.07V23.81h9.07c6.81,0,10.33-3.1,10.33-8.35S328.93,7.16,322.12,7.16Z"/><path class="cls-1" d="M356.71,21.49C356.71,9.13,366.26,0,379.22,0s22.5,9.07,22.5,21.49S392.17,43,379.22,43,356.71,33.84,356.71,21.49Zm37.19,0a14.69,14.69,0,1,0-29.37,0,14.69,14.69,0,0,0,29.37,0Z"/><path class="cls-1" d="M455.71,15.46c0,9.19-6.81,14.86-17.79,14.86h-9.43V42.38h-7.76V.6h17.19C448.9.6,455.71,6.21,455.71,15.46Zm-7.82,0c0-5.25-3.52-8.3-10.32-8.3h-9.08V23.75h9.08C444.37,23.75,447.89,20.71,447.89,15.46Z"/><path class="cls-1" d="M505.58,35.87v6.51H474.24V.6h30.5V7.1H482V18h20.18v6.38H482V35.87Z"/><path class="cls-1" d="M552.34,42.38l-8.53-12.24a14.44,14.44,0,0,1-1.61.06h-9.43V42.38H525V.6H542.2C553.18.6,560,6.21,560,15.46c0,6.33-3.22,11-8.89,13.19l9.61,13.73ZM541.84,7.16h-9.07V23.81h9.07c6.81,0,10.33-3.1,10.33-8.35S548.65,7.16,541.84,7.16Z"/><path class="cls-1" d="M587.29,7.16H573.44V.6H608.9V7.16H595.05V42.38h-7.76Z"/><path class="cls-1" d="M625.52.6h7.76V42.38h-7.76Z"/><path class="cls-1" d="M686.65,35.87v6.51H655.32V.6h30.5V7.1H663.08V18h20.17v6.38H663.08V35.87Z"/><path class="cls-1" d="M702.56,38l2.69-6A23.11,23.11,0,0,0,719,36.53c6.5,0,9.25-2.33,9.25-5.43,0-9-24.83-3.11-24.83-18.63C703.46,5.73,708.83,0,720.29,0c5,0,10.27,1.31,13.91,3.7l-2.45,6a23.22,23.22,0,0,0-11.52-3.29c-6.45,0-9.07,2.51-9.07,5.68,0,8.89,24.77,3.1,24.77,18.44C735.93,37.25,730.5,43,719,43,712.53,43,706,40.94,702.56,38Z"/></svg>